HIERARCHY
ROOT Hips
{
	OFFSET 0.000000 0.000000 0.000000
	CHANNELS 6 Xposition Yposition Zposition Yrotation Xrotation Zrotation
	JOINT Chest
	{
		OFFSET 0.000000 -0.009281 11.569106
		CHANNELS 3 Yrotation Xrotation Zrotation
		JOINT Chest2
		{
			OFFSET -0.000000 0.016865 9.269641
			CHANNELS 3 Yrotation Xrotation Zrotation
			JOINT Chest3
			{
				OFFSET -0.000000 0.000001 8.374491
				CHANNELS 3 Yrotation Xrotation Zrotation
				JOINT Chest4
				{
					OFFSET -0.000000 0.000001 8.374493
					CHANNELS 3 Yrotation Xrotation Zrotation
					JOINT Neck
					{
						OFFSET -0.000000 0.000002 12.152554
						CHANNELS 3 Yrotation Xrotation Zrotation
						JOINT Head
						{
							OFFSET -0.000000 0.040101 7.802319
							CHANNELS 3 Yrotation Xrotation Zrotation
							End Site
							{
								OFFSET -0.000000 0.020947 14.853096
							}
						}
					}
					JOINT RightCollar
					{
						OFFSET 2.894404 0.000001 6.791374
						CHANNELS 3 Yrotation Xrotation Zrotation
						JOINT RightShoulder
						{
							OFFSET 13.574684 0.000001 0.000000
							CHANNELS 3 Yrotation Xrotation Zrotation
							JOINT RightElbow
							{
								OFFSET 23.923903 0.000002 0.000000
								CHANNELS 3 Yrotation Xrotation Zrotation
								JOINT RightWrist
								{
									OFFSET 19.846718 0.012767 0.000000
									CHANNELS 3 Yrotation Xrotation Zrotation
									End Site
									{
										OFFSET 14.973145 0.000001 0.000000
									}
								}
							}
						}
					}
					JOINT LeftCollar
					{
						OFFSET -2.894404 0.000001 6.791374
						CHANNELS 3 Yrotation Xrotation Zrotation
						JOINT LeftShoulder
						{
							OFFSET -13.574684 -0.000001 0.000000
							CHANNELS 3 Yrotation Xrotation Zrotation
							JOINT LeftElbow
							{
								OFFSET -23.923903 -0.000002 0.000000
								CHANNELS 3 Yrotation Xrotation Zrotation
								JOINT LeftWrist
								{
									OFFSET -19.846718 0.012763 0.000000
									CHANNELS 3 Yrotation Xrotation Zrotation
									End Site
									{
										OFFSET -14.973145 -0.000001 0.000000
									}
								}
							}
						}
					}
				}
			}
		}
	}
	JOINT RightHip
	{
		OFFSET 9.469263 0.004643 0.045487
		CHANNELS 3 Yrotation Xrotation Zrotation
		JOINT RightKnee
		{
			OFFSET 0.000000 0.002661 -40.478676
			CHANNELS 3 Yrotation Xrotation Zrotation
			JOINT RightAnkle
			{
				OFFSET 0.000000 0.049106 -35.224068
				CHANNELS 3 Yrotation Xrotation Zrotation
				JOINT RightToe
				{
					OFFSET -0.000001 12.539529 -6.151390
					CHANNELS 3 Yrotation Xrotation Zrotation
					End Site
					{
						OFFSET -0.000001 5.044994 -1.291870
					}
				}
			}
		}
	}
	JOINT LeftHip
	{
		OFFSET -9.469263 0.004641 0.045487
		CHANNELS 3 Yrotation Xrotation Zrotation
		JOINT LeftKnee
		{
			OFFSET 0.000000 0.002661 -40.478676
			CHANNELS 3 Yrotation Xrotation Zrotation
			JOINT LeftAnkle
			{
				OFFSET 0.000000 0.049106 -35.224068
				CHANNELS 3 Yrotation Xrotation Zrotation
				JOINT LeftToe
				{
					OFFSET -0.000001 12.539529 -6.151390
					CHANNELS 3 Yrotation Xrotation Zrotation
					End Site
					{
						OFFSET -0.000001 5.044994 -1.291870
					}
				}
			}
		}
	}
}
MOTION
Frames: 11
Frame Time: 0.016667
44.629883 7.226701 83.118141 -1.257555 -3.428265 -126.617774 -0.028831 -3.918672 1.316978 -0.016195 -1.772570 0.536388 -0.016196 -1.772570 0.536388 -0.010590 -1.329443 0.402210 0.331060 -17.112878 1.507463 1.135959 4.382502 2.903794 9.337758 5.598852 0.667862 39.994016 -8.908979 -13.522556 -26.207419 -67.715875 88.928810 -45.898263 40.883723 45.252988 -8.870379 5.564564 -3.160508 -40.088778 -0.001591 13.652159 -27.430861 -71.277511 -34.092899 28.048213 15.680571 -68.873121 -14.175301 -9.649313 3.034239 2.428219 -27.403827 2.068457 9.527846 -23.620000 13.588728 -7.194564 36.840845 -2.719757 -4.012129 1.454179 -1.917255 -0.711530 -8.940773 15.077262 5.402272 4.300264 -4.337063 -0.073258 -0.073824 -0.012103 
44.338779 6.922109 83.198959 -1.163429 -3.430608 -126.156913 -0.018107 -3.938569 1.333017 -0.005912 -1.777224 0.547069 -0.005911 -1.777224 0.547061 -0.002842 -1.332925 0.410241 0.406891 -16.940459 1.336537 1.221033 4.704576 2.617340 9.323818 5.604623 0.649954 39.954824 -8.896063 -13.492526 -26.165295 -67.752820 88.931098 -45.937503 40.919633 45.232808 -8.862083 5.572825 -3.193601 -40.121197 -0.061103 13.542338 -27.565918 -71.279895 -33.925119 28.055700 15.720256 -68.875689 -14.084393 -10.341763 2.671629 2.395599 -25.514484 2.567060 11.141213 -25.075967 14.407587 -10.942699 37.423962 -4.587893 -3.676346 1.305675 -1.941635 -0.557491 -8.336933 14.697749 5.156071 3.857633 -4.486868 -0.073373 -0.066349 -0.014460 
44.032345 6.611410 83.270416 -1.054018 -3.411266 -125.747266 -0.008817 -3.961887 1.347098 -0.001692 -1.784288 0.556608 -0.001692 -1.784288 0.556608 0.000356 -1.338219 0.417418 0.465675 -16.758986 1.185345 1.281081 5.043427 2.361434 9.287018 5.607287 0.642588 39.930717 -8.878092 -13.458893 -26.141145 -67.762150 88.931112 -45.944910 40.925049 45.227641 -8.875231 5.621883 -3.214430 -40.147118 -0.177239 13.451818 -27.651275 -71.259760 -33.829688 28.075093 15.788220 -68.878332 -13.881176 -10.913824 2.372232 2.482198 -23.727853 2.746670 12.747542 -26.505819 15.338320 -14.913298 37.948777 -6.516129 -3.326766 1.170849 -1.888838 -0.428476 -7.688726 14.374263 4.915606 3.409442 -4.711535 -0.076888 -0.070778 -0.017580 
43.711376 6.288447 83.334557 -0.930820 -3.398470 -125.380362 0.011535 -4.000575 1.355676 -0.010377 -1.793739 0.566823 -0.010377 -1.793739 0.566829 -0.006119 -1.345316 0.425050 0.516850 -16.577057 1.055308 1.333972 5.382838 2.141872 9.265147 5.638751 0.641308 39.917166 -8.876643 -13.440213 -26.115918 -67.772217 88.904126 -45.935966 40.913168 45.230978 -8.876863 5.692458 -3.251861 -40.166614 -0.274346 13.406753 -27.751456 -71.233204 -33.735971 28.075750 15.867585 -68.879295 -13.565324 -11.361457 2.125226 2.611204 -22.188788 2.797100 14.327384 -27.727109 15.623545 -18.242076 38.327562 -8.189255 -2.938221 1.019254 -1.801679 -0.334420 -6.974217 14.102152 4.688930 2.940101 -4.962513 -0.084239 -0.086526 -0.022364 
43.374428 5.929805 83.394768 -0.757825 -3.475970 -125.052964 0.136459 -4.058515 1.352571 -0.036543 -1.802765 0.576764 -0.036543 -1.802765 0.576761 -0.025703 -1.352110 0.432420 0.568158 -16.407463 0.946417 1.393937 5.698874 1.961197 9.256645 5.651824 0.628054 39.934774 -8.879202 -13.388007 -26.039586 -67.803636 88.790731 -45.926342 40.888695 45.228338 -8.862584 5.767111 -3.295192 -40.155061 -0.324461 13.395665 -27.971279 -71.216265 -33.554387 28.052799 15.935325 -68.895005 -13.046298 -11.618098 1.943666 2.801937 -21.141522 2.840858 15.310475 -28.351403 15.374238 -20.286408 38.466437 -9.338994 -2.393461 0.827100 -1.699774 -0.308764 -6.204407 13.777160 4.475418 2.473715 -5.076139 -0.092293 -0.133395 -0.034744 
43.059460 5.578708 83.446648 -0.657583 -3.467633 -124.751602 0.159209 -4.124221 1.336886 -0.077277 -1.814909 0.579963 -0.077277 -1.814909 0.579965 -0.056231 -1.361257 0.434704 0.612538 -16.244755 0.864849 1.450381 6.001722 1.828595 9.250964 5.657091 0.600727 39.974751 -8.893953 -13.288831 -25.892269 -67.862547 88.593325 -45.917572 40.854227 45.217707 -8.832556 5.809279 -3.329538 -40.103142 -0.300649 13.388262 -28.296181 -71.228068 -33.315422 28.046090 15.990935 -68.942960 -12.607151 -11.714925 1.788831 3.102312 -20.553340 2.344304 15.166389 -28.425391 15.580413 -21.161174 38.677182 -9.833095 -1.949378 0.608100 -1.667949 -0.327181 -5.415461 13.444847 4.271699 2.001700 -5.164372 -0.091343 -0.182675 -0.045283 
42.762093 5.253353 83.485786 -0.668817 -3.279060 -124.477247 -0.027319 -4.165377 1.333267 -0.126457 -1.833522 0.577595 -0.126457 -1.833522 0.577596 -0.093101 -1.375263 0.432778 0.649016 -16.083642 0.803621 1.499248 6.301368 1.730904 9.267202 5.693063 0.569984 40.033788 -8.924201 -13.205387 -25.673141 -67.918103 88.318663 -45.898205 40.794210 45.208339 -8.792053 5.839803 -3.370753 -40.022607 -0.271251 13.387569 -28.562540 -71.266528 -33.166463 28.052183 16.074724 -69.012409 -12.316207 -11.904078 1.572254 3.274158 -19.796277 1.475827 14.768274 -28.488500 15.800937 -21.511664 39.410120 -9.952404 -1.741887 0.405185 -1.651339 -0.357278 -4.612822 13.154751 4.086230 1.409932 -5.230654 -0.073275 -0.130344 -0.036833 
42.459656 4.929621 83.512398 -0.707923 -3.091194 -124.224790 -0.229075 -4.209470 1.322432 -0.169693 -1.853729 0.576768 -0.169693 -1.853730 0.576771 -0.125508 -1.390458 0.432022 0.665485 -15.929145 0.759510 1.516821 6.588804 1.657637 9.289716 5.720188 0.555785 40.099395 -8.931359 -13.170463 -25.477671 -67.944283 88.070419 -45.867859 40.736631 45.209251 -8.761699 5.841481 -3.399276 -39.948827 -0.279575 13.365090 -28.663466 -71.299955 -33.166798 28.063635 16.196284 -69.098490 -12.011265 -12.336977 1.175765 3.198018 -18.682639 1.103477 14.354710 -28.401837 15.846054 -21.560068 40.448664 -9.912642 -1.543791 0.208269 -1.700533 -0.399711 -3.867101 13.062330 3.874797 0.860187 -5.389059 -0.049154 -0.093058 -0.029762 
42.134178 4.594599 83.526772 -0.706331 -2.948953 -124.027848 -0.369657 -4.251109 1.325122 -0.202554 -1.873376 0.582795 -0.202554 -1.873377 0.582799 -0.150115 -1.405227 0.436438 0.659807 -15.774020 0.729230 1.498061 6.877572 1.601984 9.295833 5.711227 0.553343 40.166573 -8.901359 -13.143630 -25.367896 -67.934195 87.917512 -45.838042 40.685586 45.213230 -8.742637 5.825302 -3.405340 -39.901989 -0.315366 13.297682 -28.612168 -71.307906 -33.292029 28.078423 16.325680 -69.176682 -11.681409 -12.839503 0.757417 3.213368 -17.473702 1.158830 14.134834 -28.021423 15.143795 -21.270421 41.650757 -9.703747 -1.269560 0.037519 -1.713048 -0.453807 -3.154556 13.086625 3.637060 0.375478 -5.621316 -0.020756 -0.105563 -0.026632 
41.790592 4.276103 83.530762 -0.690502 -2.769255 -123.898949 -0.533970 -4.270139 1.359627 -0.229477 -1.889183 0.596960 -0.229477 -1.889183 0.596963 -0.170246 -1.417113 0.446974 0.638766 -15.625400 0.711075 1.454858 7.154314 1.563068 9.308458 5.707566 0.570852 40.229643 -8.859532 -13.135950 -25.341638 -67.921737 87.839422 -45.836044 40.674330 45.209551 -8.731491 5.836027 -3.412869 -39.859833 -0.366619 13.244513 -28.529079 -71.284547 -33.443868 28.076645 16.401731 -69.227539 -11.425933 -13.201831 0.343411 3.205583 -16.446655 0.925846 13.600087 -27.520591 14.963708 -20.772226 42.834883 -9.388830 -1.017728 -0.084837 -1.671057 -0.504785 -2.444748 13.099694 3.392862 -0.147854 -5.868782 0.008239 -0.097385 -0.021166 
41.413437 3.950811 83.530540 -0.621134 -2.644546 -123.838460 -0.622208 -4.276679 1.410792 -0.253047 -1.900132 0.616166 -0.253047 -1.900132 0.616165 -0.187853 -1.425356 0.461296 0.606371 -15.491482 0.710788 1.396691 7.403619 1.552885 9.332028 5.733215 0.591352 40.277100 -8.870567 -13.122212 -25.304635 -67.946531 87.743472 -45.883268 40.721707 45.194894 -8.741920 5.890315 -3.407577 -39.793799 -0.398406 13.227656 -28.555585 -71.281548 -33.481089 28.063393 16.427802 -69.264593 -11.134218 -13.463315 -0.041946 3.245937 -15.518670 0.482318 12.946620 -26.897679 15.038892 -20.062538 43.447861 -8.958929 -0.688779 -0.156800 -1.568248 -0.557211 -1.792534 13.020452 3.133276 -0.623768 -5.890810 0.033991 -0.125277 -0.018873 
